<svg width="24" height="24" viewBox="0 0 24 24" fill="none" xmlns="http://www.w3.org/2000/svg">
<path d="M17.4276 16.5693H16.999V10.4978C16.999 7.97819 15.1365 5.89604 12.7133 5.54961V4.85497C12.7133 4.46033 12.3937 4.14069 11.999 4.14069C11.6044 4.14069 11.2847 4.46033 11.2847 4.85497V5.54961C8.86152 5.89604 6.99902 7.97819 6.99902 10.4978V16.5693H6.57045C6.25438 16.5693 5.99902 16.8246 5.99902 17.1407V17.7121C5.99902 17.7907 6.06331 17.855 6.14188 17.855H9.99902C9.99902 18.9585 10.8955 19.855 11.999 19.855C13.1026 19.855 13.999 18.9585 13.999 17.855H17.8562C17.9347 17.855 17.999 17.7907 17.999 17.7121V17.1407C17.999 16.8246 17.7437 16.5693 17.4276 16.5693ZM11.999 18.7121C11.5258 18.7121 11.1419 18.3282 11.1419 17.855H12.8562C12.8562 18.3282 12.4722 18.7121 11.999 18.7121ZM8.28474 16.5693V10.4978C8.28474 9.50497 8.67045 8.57283 9.37224 7.87104C10.074 7.16926 11.0062 6.78354 11.999 6.78354C12.9919 6.78354 13.924 7.16926 14.6258 7.87104C15.3276 8.57283 15.7133 9.50497 15.7133 10.4978V16.5693H8.28474Z" fill="white"/>
</svg>
