<svg width="15" height="15" viewBox="0 0 15 15" fill="none" xmlns="http://www.w3.org/2000/svg">
<g clip-path="url(#clip0_13_228)">
<rect width="14" height="14" transform="translate(0.5 0.5)" fill="white" fill-opacity="0.01"/>
<path d="M13.1184 10.0964H4.97682L5.38561 9.26379L12.1778 9.25149C12.4075 9.25149 12.6044 9.08743 12.6454 8.86047L13.586 3.59543C13.6106 3.45735 13.5737 3.31516 13.4835 3.20715C13.4389 3.154 13.3832 3.11118 13.3204 3.08167C13.2576 3.05216 13.1892 3.03666 13.1198 3.03625L4.47917 3.00754L4.40534 2.66028C4.35886 2.43879 4.15925 2.27747 3.93229 2.27747H1.81999C1.69199 2.27747 1.56924 2.32831 1.47873 2.41882C1.38822 2.50933 1.33737 2.63209 1.33737 2.76008C1.33737 2.88808 1.38822 3.01084 1.47873 3.10134C1.56924 3.19185 1.69199 3.2427 1.81999 3.2427H3.54128L3.86393 4.77668L4.65827 8.62258L3.63561 10.2919C3.58251 10.3636 3.55052 10.4487 3.54327 10.5376C3.53602 10.6265 3.5538 10.7157 3.5946 10.795C3.67663 10.9577 3.84206 11.0603 4.02526 11.0603H4.88386C4.70081 11.3034 4.60195 11.5995 4.60222 11.9038C4.60222 12.6777 5.23112 13.3066 6.00495 13.3066C6.77878 13.3066 7.40768 12.6777 7.40768 11.9038C7.40768 11.5989 7.30651 11.3023 7.12604 11.0603H9.32858C9.14554 11.3034 9.04667 11.5995 9.04694 11.9038C9.04694 12.6777 9.67585 13.3066 10.4497 13.3066C11.2235 13.3066 11.8524 12.6777 11.8524 11.9038C11.8524 11.5989 11.7512 11.3023 11.5708 11.0603H13.1198C13.385 11.0603 13.6024 10.8443 13.6024 10.5777C13.6016 10.4498 13.5503 10.3274 13.4596 10.2373C13.3689 10.1471 13.2463 10.0965 13.1184 10.0964V10.0964ZM4.68015 3.95911L12.5524 3.98508L11.7813 8.30266L5.59753 8.3136L4.68015 3.95911ZM6.00495 12.3359C5.76706 12.3359 5.57292 12.1417 5.57292 11.9038C5.57292 11.6659 5.76706 11.4718 6.00495 11.4718C6.24284 11.4718 6.43698 11.6659 6.43698 11.9038C6.43698 12.0184 6.39146 12.1283 6.31044 12.2093C6.22942 12.2903 6.11953 12.3359 6.00495 12.3359V12.3359ZM10.4497 12.3359C10.2118 12.3359 10.0176 12.1417 10.0176 11.9038C10.0176 11.6659 10.2118 11.4718 10.4497 11.4718C10.6876 11.4718 10.8817 11.6659 10.8817 11.9038C10.8817 12.0184 10.8362 12.1283 10.7552 12.2093C10.6741 12.2903 10.5643 12.3359 10.4497 12.3359V12.3359Z" fill="white"/>
</g>
<defs>
<clipPath id="clip0_13_228">
<rect width="14" height="14" fill="white" transform="translate(0.5 0.5)"/>
</clipPath>
</defs>
</svg>
