<svg width="64" height="64" viewBox="0 0 64 64" fill="none" xmlns="http://www.w3.org/2000/svg" xmlns:xlink="http://www.w3.org/1999/xlink">
<path d="M63,32C63,14.327 48.673,0 31,0C13.327,0 -1,14.327 -1,32C-1,47.972 10.702,61.211 26,63.611L26,41.25L17.875,41.25L17.875,32L26,32L26,24.95C26,16.93 30.778,12.5 38.087,12.5C41.588,12.5 45.25,13.125 45.25,13.125L45.25,21L41.215,21C37.24,21 36,23.467 36,25.997L36,32L44.875,32L43.456,41.25L36,41.25L36,63.611C51.298,61.211 63,47.972 63,32Z" fill="#1877F2"/>
<path d="M43.456,41.25L44.875,32L36,32L36,25.997C36,23.466 37.24,21 41.215,21L45.25,21L45.25,13.125C45.25,13.125 41.588,12.5 38.087,12.5C30.778,12.5 26,16.93 26,24.95L26,32L17.875,32L17.875,41.25L26,41.25L26,63.611C27.654,63.87 29.326,64 31,64C32.674,64 34.346,63.87 36,63.611L36,41.25L43.456,41.25Z" fill="#FFFFFF"/>
</svg>
