<svg width="38" height="38" viewBox="0 0 38 38" fill="none" xmlns="http://www.w3.org/2000/svg" xmlns:xlink="http://www.w3.org/1999/xlink">
<path d="M35.25,0.45L0.75,0.45C-0.08,0.45 -0.75,1.12 -0.75,1.95L-0.75,36.45C-0.75,37.28 -0.08,37.95 0.75,37.95L35.25,37.95C36.08,37.95 36.75,37.28 36.75,36.45L36.75,1.95C36.75,1.12 36.08,0.45 35.25,0.45ZM30.919,11.395L27.923,11.395C25.575,11.395 25.12,12.511 25.12,14.152L25.12,17.766L30.727,17.766L29.995,23.423L25.12,23.423L25.12,37.95L19.275,37.95L19.275,23.428L14.386,23.428L14.386,17.766L19.275,17.766L19.275,13.594C19.275,8.752 22.233,6.112 26.555,6.112C28.627,6.112 30.403,6.267 30.923,6.337L30.923,11.395L30.919,11.395Z" fill="#1890FF"/>
</svg>
