<svg width="48" height="38" viewBox="0 0 48 38" fill="none" xmlns="http://www.w3.org/2000/svg" xmlns:xlink="http://www.w3.org/1999/xlink">
<path d="M46.286,-0.467L1.714,-0.467C0.766,-0.467 0,0.299 0,1.247L0,35.533C0,36.481 0.766,37.247 1.714,37.247L46.286,37.247C47.234,37.247 48,36.481 48,35.533L48,1.247C48,0.299 47.234,-0.467 46.286,-0.467ZM44.143,5.469L44.143,33.39L3.857,33.39L3.857,5.469L2.379,4.317L4.484,1.612L6.777,3.396L41.229,3.396L43.521,1.612L45.627,4.317L44.143,5.469L44.143,5.469ZM41.229,3.39L24,16.783L6.771,3.39L4.479,1.606L2.373,4.312L3.852,5.463L22.152,19.692C22.678,20.101 23.326,20.323 23.992,20.323C24.658,20.323 25.306,20.101 25.832,19.692L44.143,5.469L45.621,4.317L43.516,1.612L41.229,3.39Z" fill="#ED1C24" fill-opacity="0.8"/>
</svg>
