<svg width="48" height="48" viewBox="0 0 48 48" fill="none" xmlns="http://www.w3.org/2000/svg" xmlns:xlink="http://www.w3.org/1999/xlink">
<path d="M42.611,19.683L41,19.683L41,19.6L23,19.6L23,27.6L34.303,27.6C32.654,32.257 28.223,35.6 23,35.6C16.373,35.6 11,30.227 11,23.6C11,16.973 16.373,11.6 23,11.6C26.059,11.6 28.842,12.754 30.961,14.639L36.618,8.982C33.046,5.653 28.268,3.6 23,3.6C11.955,3.6 3,12.555 3,23.6C3,34.645 11.955,43.6 23,43.6C34.045,43.6 43,34.645 43,23.6C43,22.259 42.862,20.95 42.611,19.683Z" fill="#FFCB11"/>
<path d="M5.306,14.291L11.877,19.11C13.655,14.708 17.961,11.6 23,11.6C26.059,11.6 28.842,12.754 30.961,14.639L36.618,8.982C33.046,5.653 28.268,3.6 23,3.6C15.318,3.6 8.656,7.937 5.306,14.291Z" fill="#FF3D00"/>
<path d="M23,43.6C28.166,43.6 32.86,41.623 36.409,38.408L30.219,33.17C28.144,34.748 25.607,35.602 23,35.6C17.798,35.6 13.381,32.283 11.717,27.654L5.195,32.679C8.505,39.156 15.227,43.6 23,43.6Z" fill="#4CAF50"/>
<path d="M42.611,19.683L41,19.683L41,19.6L23,19.6L23,27.6L34.303,27.6C33.514,29.816 32.093,31.753 30.216,33.171L30.219,33.169L36.409,38.407C35.971,38.805 43,33.6 43,23.6C43,22.259 42.862,20.95 42.611,19.683Z" fill="#1976D2"/>
</svg>
