<svg width="15" height="15" viewBox="0 0 15 15" fill="none" xmlns="http://www.w3.org/2000/svg">
<g clip-path="url(#clip0_13_235)">
<rect width="14" height="14" transform="translate(0.5 0.5)" fill="white" fill-opacity="0.01"/>
<path d="M7.5 1.37512C4.11758 1.37512 1.375 4.1177 1.375 7.50012C1.375 10.8825 4.11758 13.6251 7.5 13.6251C10.8824 13.6251 13.625 10.8825 13.625 7.50012C13.625 4.1177 10.8824 1.37512 7.5 1.37512ZM7.5 12.5861C4.6918 12.5861 2.41406 10.3083 2.41406 7.50012C2.41406 4.69192 4.6918 2.41418 7.5 2.41418C10.3082 2.41418 12.5859 4.69192 12.5859 7.50012C12.5859 10.3083 10.3082 12.5861 7.5 12.5861Z" fill="white"/>
<path d="M6.84354 5.09387C6.84354 5.26792 6.91268 5.43484 7.03575 5.55791C7.15882 5.68098 7.32574 5.75012 7.49979 5.75012C7.67383 5.75012 7.84075 5.68098 7.96382 5.55791C8.0869 5.43484 8.15604 5.26792 8.15604 5.09387C8.15604 4.91982 8.0869 4.7529 7.96382 4.62983C7.84075 4.50676 7.67383 4.43762 7.49979 4.43762C7.32574 4.43762 7.15882 4.50676 7.03575 4.62983C6.91268 4.7529 6.84354 4.91982 6.84354 5.09387ZM7.82791 6.62512H7.17166C7.11151 6.62512 7.06229 6.67434 7.06229 6.7345V10.4532C7.06229 10.5134 7.11151 10.5626 7.17166 10.5626H7.82791C7.88807 10.5626 7.93729 10.5134 7.93729 10.4532V6.7345C7.93729 6.67434 7.88807 6.62512 7.82791 6.62512Z" fill="white"/>
</g>
<defs>
<clipPath id="clip0_13_235">
<rect width="14" height="14" fill="white" transform="translate(0.5 0.5)"/>
</clipPath>
</defs>
</svg>
