<svg width="15" height="15" viewBox="0 0 15 15" fill="none" xmlns="http://www.w3.org/2000/svg"><g clip-path="url(#clip0_19_248)"><rect width="14" height="14" transform="translate(0.5 0.5)" fill="white" fill-opacity="0.01"/><path d="M12.9136 11.4295C12.6189 10.7313 12.1911 10.0971 11.6543 9.56229C11.119 9.0259 10.4849 8.59824 9.78707 8.30292C9.78082 8.29979 9.77457 8.29823 9.76832 8.29511C10.7418 7.59198 11.3746 6.44667 11.3746 5.15448C11.3746 3.01386 9.64019 1.27948 7.49957 1.27948C5.35894 1.27948 3.62457 3.01386 3.62457 5.15448C3.62457 6.44667 4.25738 7.59198 5.23082 8.29667C5.22457 8.29979 5.21832 8.30136 5.21207 8.30448C4.51207 8.59979 3.88394 9.02323 3.34488 9.56386C2.80849 10.0991 2.38082 10.7332 2.0855 11.431C1.79538 12.1143 1.63891 12.8467 1.62457 13.5889C1.62415 13.6055 1.62707 13.6221 1.63317 13.6377C1.63926 13.6532 1.64841 13.6673 1.66005 13.6793C1.6717 13.6912 1.68562 13.7007 1.701 13.7072C1.71637 13.7137 1.73288 13.717 1.74957 13.717H2.68707C2.75582 13.717 2.8105 13.6623 2.81207 13.5951C2.84332 12.3889 3.32769 11.2592 4.18394 10.4029C5.06988 9.51698 6.24644 9.02948 7.49957 9.02948C8.75269 9.02948 9.92925 9.51698 10.8152 10.4029C11.6714 11.2592 12.1558 12.3889 12.1871 13.5951C12.1886 13.6639 12.2433 13.717 12.3121 13.717H13.2496C13.2662 13.717 13.2828 13.7137 13.2981 13.7072C13.3135 13.7007 13.3274 13.6912 13.3391 13.6793C13.3507 13.6673 13.3599 13.6532 13.366 13.6377C13.3721 13.6221 13.375 13.6055 13.3746 13.5889C13.3589 12.842 13.2043 12.1154 12.9136 11.4295V11.4295ZM7.49957 7.84198C6.78238 7.84198 6.10738 7.56229 5.59957 7.05448C5.09175 6.54667 4.81207 5.87167 4.81207 5.15448C4.81207 4.43729 5.09175 3.76229 5.59957 3.25448C6.10738 2.74667 6.78238 2.46698 7.49957 2.46698C8.21675 2.46698 8.89175 2.74667 9.39957 3.25448C9.90738 3.76229 10.1871 4.43729 10.1871 5.15448C10.1871 5.87167 9.90738 6.54667 9.39957 7.05448C8.89175 7.56229 8.21675 7.84198 7.49957 7.84198Z" fill="white"/></g><defs><clipPath id="clip0_19_248"><rect width="14" height="14" fill="white" transform="translate(0.5 0.5)"/></clipPath></defs></svg>
