<svg width="15" height="15" viewBox="0 0 15 15" fill="none" xmlns="http://www.w3.org/2000/svg">
<g clip-path="url(#clip0_27_242)">
<rect width="14" height="14" transform="translate(0.5 0.5)" fill="white" fill-opacity="0.01"/>
<path d="M13.2049 3.2317L11.5409 1.5692C11.3377 1.36608 11.0659 1.25201 10.7784 1.25201C10.4909 1.25201 10.219 1.36451 10.0159 1.5692L8.22368 3.35826C8.02056 3.56139 7.9065 3.83483 7.9065 4.12233C7.9065 4.41139 8.01899 4.6817 8.22368 4.88639L9.62368 6.28795C9.30475 7.03105 8.8465 7.70623 8.27368 8.27701C7.70024 8.85358 7.02993 9.30827 6.28618 9.63014L4.88618 8.22858C4.68306 8.02545 4.41118 7.91139 4.12368 7.91139C3.98187 7.91087 3.84139 7.93865 3.71046 7.99312C3.57952 8.04758 3.46078 8.12763 3.36118 8.22858L1.56743 10.0176C1.36431 10.2208 1.25024 10.4942 1.25024 10.7817C1.25024 11.0708 1.36274 11.3411 1.56743 11.5458L3.22993 13.2083C3.57681 13.5551 4.05493 13.7536 4.54556 13.7536C4.64712 13.7536 4.74556 13.7458 4.84556 13.7286C6.91431 13.388 8.96743 12.2864 10.6252 10.6301C12.2815 8.97077 13.3815 6.91764 13.7252 4.84733C13.8237 4.25983 13.6268 3.65514 13.2049 3.2317ZM12.6174 4.66139C12.3127 6.50358 11.3221 8.34108 9.82993 9.83327C8.33774 11.3255 6.50181 12.3161 4.65962 12.6208C4.42837 12.6598 4.19087 12.5817 4.02212 12.4145L2.38931 10.7817L4.12056 9.04889L5.99243 10.9239L6.00649 10.938L6.34399 10.813C7.36732 10.4367 8.2966 9.84245 9.06742 9.07136C9.83824 8.30027 10.4322 7.37078 10.8081 6.34733L10.9331 6.00983L9.04556 4.12389L10.7768 2.39108L12.4096 4.02389C12.5784 4.19264 12.6565 4.43014 12.6174 4.66139Z" fill="white"/>
</g>
<defs>
<clipPath id="clip0_27_242">
<rect width="14" height="14" fill="white" transform="translate(0.5 0.5)"/>
</clipPath>
</defs>
</svg>
