<svg width="15" height="15" viewBox="0 0 15 15" fill="none" xmlns="http://www.w3.org/2000/svg">
<g clip-path="url(#clip0_211_417)">
<rect width="14" height="14" transform="translate(0.5 0.5)" fill="white" fill-opacity="0.01"/>
<path d="M13.2047 3.23164L11.5406 1.56914C11.3375 1.36602 11.0656 1.25195 10.7781 1.25195C10.4906 1.25195 10.2188 1.36445 10.0156 1.56914L8.22344 3.3582C8.02031 3.56133 7.90625 3.83477 7.90625 4.12227C7.90625 4.41133 8.01875 4.68164 8.22344 4.88633L9.62344 6.28789C9.30451 7.03099 8.84626 7.70617 8.27344 8.27695C7.7 8.85352 7.02969 9.3082 6.28594 9.63008L4.88594 8.22852C4.68281 8.02539 4.41094 7.91133 4.12344 7.91133C3.98163 7.9108 3.84114 7.93859 3.71021 7.99305C3.57928 8.04752 3.46054 8.12757 3.36094 8.22852L1.56719 10.0176C1.36406 10.2207 1.25 10.4941 1.25 10.7816C1.25 11.0707 1.3625 11.341 1.56719 11.5457L3.22969 13.2082C3.57656 13.5551 4.05469 13.7535 4.54531 13.7535C4.64688 13.7535 4.74531 13.7457 4.84531 13.7285C6.91406 13.3879 8.96719 12.2863 10.625 10.6301C12.2813 8.9707 13.3813 6.91758 13.725 4.84727C13.8234 4.25977 13.6266 3.65508 13.2047 3.23164ZM12.6172 4.66133C12.3125 6.50352 11.3219 8.34102 9.82969 9.8332C8.3375 11.3254 6.50156 12.316 4.65938 12.6207C4.42813 12.6598 4.19063 12.5816 4.02188 12.4145L2.38906 10.7816L4.12031 9.04883L5.99219 10.9238L6.00625 10.9379L6.34375 10.8129C7.36708 10.4367 8.29635 9.84239 9.06717 9.0713C9.838 8.30021 10.4319 7.37072 10.8078 6.34727L10.9328 6.00977L9.04531 4.12383L10.7766 2.39102L12.4094 4.02383C12.5781 4.19258 12.6563 4.43008 12.6172 4.66133Z" fill="white"/>
</g>
<defs>
<clipPath id="clip0_211_417">
<rect width="14" height="14" fill="white" transform="translate(0.5 0.5)"/>
</clipPath>
</defs>
</svg>
