<svg width="30" height="30" viewBox="0 0 30 30" fill="none" xmlns="http://www.w3.org/2000/svg" xmlns:xlink="http://www.w3.org/1999/xlink">
<path d="M29.205,27.243L19.93,17.968C21.369,16.107 22.147,13.832 22.147,11.439C22.147,8.575 21.03,5.889 19.008,3.864C16.987,1.839 14.294,0.725 11.433,0.725C8.572,0.725 5.88,1.843 3.858,3.864C1.833,5.885 0.719,8.575 0.719,11.439C0.719,14.3 1.837,16.993 3.858,19.014C5.88,21.039 8.569,22.153 11.433,22.153C13.826,22.153 16.097,21.375 17.958,19.939L27.233,29.211C27.26,29.238 27.293,29.259 27.328,29.274C27.364,29.289 27.402,29.296 27.44,29.296C27.479,29.296 27.517,29.289 27.552,29.274C27.588,29.259 27.62,29.238 27.647,29.211L29.205,27.657C29.232,27.63 29.253,27.597 29.268,27.562C29.283,27.526 29.29,27.488 29.29,27.45C29.29,27.411 29.283,27.373 29.268,27.338C29.253,27.302 29.232,27.27 29.205,27.243L29.205,27.243ZM17.09,17.096C15.576,18.607 13.569,19.439 11.433,19.439C9.297,19.439 7.29,18.607 5.776,17.096C4.265,15.582 3.433,13.575 3.433,11.439C3.433,9.303 4.265,7.293 5.776,5.782C7.29,4.271 9.297,3.439 11.433,3.439C13.569,3.439 15.58,4.268 17.09,5.782C18.601,7.296 19.433,9.303 19.433,11.439C19.433,13.575 18.601,15.585 17.09,17.096Z" fill="#000000" fill-opacity="0.85"/>
</svg>
