<svg width="14" height="14" viewBox="0 0 14 14" fill="none" xmlns="http://www.w3.org/2000/svg">
<path d="M5.24988 3.96892H6.40457V9.25486C6.40457 9.32361 6.46082 9.37986 6.52957 9.37986H7.46707C7.53582 9.37986 7.59207 9.32361 7.59207 9.25486V3.96892H8.74988C8.85457 3.96892 8.91238 3.8486 8.84832 3.76735L7.09832 1.55173C7.08662 1.53679 7.07168 1.52471 7.05463 1.5164C7.03757 1.50809 7.01885 1.50377 6.99988 1.50377C6.98091 1.50377 6.96218 1.50809 6.94513 1.5164C6.92807 1.52471 6.91313 1.53679 6.90144 1.55173L5.15144 3.76579C5.08738 3.84861 5.14519 3.96892 5.24988 3.96892V3.96892ZM12.7186 8.78611H11.7811C11.7124 8.78611 11.6561 8.84236 11.6561 8.91111V11.3174H2.34363V8.91111C2.34363 8.84236 2.28738 8.78611 2.21863 8.78611H1.28113C1.21238 8.78611 1.15613 8.84236 1.15613 8.91111V12.0049C1.15613 12.2814 1.37957 12.5049 1.65613 12.5049H12.3436C12.6202 12.5049 12.8436 12.2814 12.8436 12.0049V8.91111C12.8436 8.84236 12.7874 8.78611 12.7186 8.78611Z" fill="black" fill-opacity="0.25"/>
</svg>
