<svg width="48" height="48" viewBox="0 0 48 48" fill="none" xmlns="http://www.w3.org/2000/svg" xmlns:xlink="http://www.w3.org/1999/xlink">
<path d="M21.871,0.159L26.111,0.159C31.935,0.159 35.338,1.015 38.359,2.634C41.38,4.254 43.764,6.62 45.365,9.641C46.985,12.662 47.841,16.065 47.841,21.889L47.841,26.111C47.841,31.935 46.985,35.338 45.365,38.359C43.746,41.38 41.38,43.764 38.359,45.365C35.338,46.985 31.935,47.841 26.111,47.841L21.889,47.841C16.065,47.841 12.662,46.985 9.641,45.365C6.62,43.746 4.236,41.38 2.634,38.359C1.015,35.338 0.159,31.935 0.159,26.111L0.159,21.889C0.159,16.065 1.015,12.662 2.634,9.641C4.254,6.62 6.62,4.236 9.641,2.634C12.644,1.015 16.065,0.159 21.871,0.159Z" clip-rule="evenodd" fill-rule="evenodd" fill="#0068FF"/>
<g opacity="0.12">
<path d="M47.84,25.415L47.84,26.111C47.84,31.935 46.985,35.338 45.365,38.359C43.746,41.38 41.38,43.764 38.359,45.366C35.338,46.986 31.934,47.841 26.111,47.841L21.889,47.841C17.123,47.841 13.979,47.268 11.338,46.173L6.984,41.69L47.84,25.415Z" clip-rule="evenodd" fill-rule="evenodd" fill="#001A33"/>
</g>
<path d="M7.468,41.846C9.698,42.092 12.486,41.456 14.465,40.495C23.062,45.247 36.499,45.02 44.633,39.814C44.948,39.341 45.243,38.849 45.516,38.339C47.142,35.307 48,31.891 48,26.046L48,21.809C48,15.964 47.142,12.548 45.516,9.516C43.909,6.484 41.516,4.11 38.484,2.484C35.452,0.858 32.037,0 26.192,0L21.936,0C16.958,0 13.726,0.627 11.011,1.823C10.863,1.956 10.717,2.091 10.574,2.228C2.609,9.907 2.003,26.553 8.758,35.595C8.765,35.608 8.774,35.622 8.783,35.635C9.824,37.17 8.819,39.855 7.249,41.426C6.993,41.663 7.084,41.809 7.468,41.846Z" clip-rule="evenodd" fill-rule="evenodd" fill="#FFFFFF"/>
<path d="M19.741,16.32L10.405,16.32L10.405,18.322L16.883,18.322L10.496,26.239C10.295,26.53 10.15,26.803 10.15,27.421L10.15,27.931L18.958,27.931C19.395,27.931 19.759,27.567 19.759,27.13L19.759,26.057L12.953,26.057L18.958,18.522C19.049,18.413 19.213,18.213 19.286,18.122L19.322,18.067C19.668,17.558 19.741,17.121 19.741,16.593L19.741,16.32Z" fill="#0068FF"/>
<path d="M31.624,27.931L32.953,27.931L32.953,16.32L30.951,16.32L30.951,27.258C30.951,27.622 31.242,27.931 31.624,27.931Z" fill="#0068FF"/>
<path d="M24.781,18.905C22.27,18.905 20.232,20.943 20.232,23.454C20.232,25.966 22.27,28.004 24.781,28.004C27.293,28.004 29.331,25.966 29.331,23.454C29.349,20.943 27.311,18.905 24.781,18.905ZM24.781,26.13C23.307,26.13 22.106,24.928 22.106,23.454C22.106,21.98 23.307,20.779 24.781,20.779C26.255,20.779 27.457,21.98 27.457,23.454C27.457,24.928 26.274,26.13 24.781,26.13Z" fill="#0068FF"/>
<path d="M38.867,18.831C36.338,18.831 34.281,20.888 34.281,23.418C34.281,25.947 36.338,28.004 38.867,28.004C41.397,28.004 43.453,25.947 43.453,23.418C43.453,20.888 41.397,18.831 38.867,18.831ZM38.867,26.129C37.375,26.129 36.174,24.928 36.174,23.436C36.174,21.943 37.375,20.742 38.867,20.742C40.36,20.742 41.561,21.943 41.561,23.436C41.561,24.928 40.36,26.129 38.867,26.129Z" fill="#0068FF"/>
<path d="M28.278,27.931L29.352,27.931L29.352,19.159L27.477,19.159L27.477,27.148C27.477,27.567 27.841,27.931 28.278,27.931Z" fill="#0068FF"/>
</svg>
