<svg width="176" height="40" viewBox="0 0 176 40" fill="none" xmlns="http://www.w3.org/2000/svg">
<rect width="16" height="16" transform="translate(0 12)" fill="white"/>
<path d="M6.14314 18.7506H14.7146C14.7931 18.7506 14.8574 18.6863 14.8574 18.6077V17.6077C14.8574 17.5291 14.7931 17.4648 14.7146 17.4648H6.14314C6.06457 17.4648 6.00028 17.5291 6.00028 17.6077V18.6077C6.00028 18.6863 6.06457 18.7506 6.14314 18.7506ZM6.00028 22.3934C6.00028 22.472 6.06457 22.5363 6.14314 22.5363H14.7146C14.7931 22.5363 14.8574 22.472 14.8574 22.3934V21.3934C14.8574 21.3148 14.7931 21.2506 14.7146 21.2506H6.14314C6.06457 21.2506 6.00028 21.3148 6.00028 21.3934V22.3934ZM15.0003 13.7148H1.00028C0.921708 13.7148 0.857422 13.7791 0.857422 13.8577V14.8577C0.857422 14.9363 0.921708 15.0006 1.00028 15.0006H15.0003C15.0789 15.0006 15.1431 14.9363 15.1431 14.8577V13.8577C15.1431 13.7791 15.0789 13.7148 15.0003 13.7148ZM15.0003 25.0006H1.00028C0.921708 25.0006 0.857422 25.0648 0.857422 25.1434V26.1434C0.857422 26.222 0.921708 26.2863 1.00028 26.2863H15.0003C15.0789 26.2863 15.1431 26.222 15.1431 26.1434V25.1434C15.1431 25.0648 15.0789 25.0006 15.0003 25.0006ZM0.918136 20.1238L3.70921 22.322C3.81278 22.4041 3.96635 22.3309 3.96635 22.1988V17.8023C3.96635 17.6702 3.81457 17.597 3.70921 17.6791L0.918136 19.8773C0.899369 19.8919 0.884182 19.9106 0.873736 19.932C0.863289 19.9533 0.857859 19.9768 0.857859 20.0006C0.857859 20.0243 0.863289 20.0478 0.873736 20.0691C0.884182 20.0905 0.899369 20.1092 0.918136 20.1238V20.1238Z" fill="black"/>
</svg>
