<svg width="14" height="14" viewBox="0 0 14 14" fill="none" xmlns="http://www.w3.org/2000/svg">
<rect width="14" height="14" fill="white"/>
<path d="M12.7499 0.254608H1.24988C0.973315 0.254608 0.749878 0.478046 0.749878 0.754608V12.2546C0.749878 12.5312 0.973315 12.7546 1.24988 12.7546H12.7499C13.0264 12.7546 13.2499 12.5312 13.2499 12.2546V0.754608C13.2499 0.478046 13.0264 0.254608 12.7499 0.254608ZM12.1249 11.6296H1.87488V1.37961H12.1249V11.6296ZM6.68738 4.75461H9.56238C9.63113 4.75461 9.68738 4.69836 9.68738 4.62961V3.87961C9.68738 3.81086 9.63113 3.75461 9.56238 3.75461H6.68738C6.61863 3.75461 6.56238 3.81086 6.56238 3.87961V4.62961C6.56238 4.69836 6.61863 4.75461 6.68738 4.75461ZM6.68738 7.00461H9.56238C9.63113 7.00461 9.68738 6.94836 9.68738 6.87961V6.12961C9.68738 6.06086 9.63113 6.00461 9.56238 6.00461H6.68738C6.61863 6.00461 6.56238 6.06086 6.56238 6.12961V6.87961C6.56238 6.94836 6.61863 7.00461 6.68738 7.00461ZM6.68738 9.25461H9.56238C9.63113 9.25461 9.68738 9.19836 9.68738 9.12961V8.37961C9.68738 8.31086 9.63113 8.25461 9.56238 8.25461H6.68738C6.61863 8.25461 6.56238 8.31086 6.56238 8.37961V9.12961C6.56238 9.19836 6.61863 9.25461 6.68738 9.25461ZM4.31238 4.25461C4.31238 4.42037 4.37823 4.57934 4.49544 4.69655C4.61265 4.81376 4.77162 4.87961 4.93738 4.87961C5.10314 4.87961 5.26211 4.81376 5.37932 4.69655C5.49653 4.57934 5.56238 4.42037 5.56238 4.25461C5.56238 4.08885 5.49653 3.92988 5.37932 3.81267C5.26211 3.69546 5.10314 3.62961 4.93738 3.62961C4.77162 3.62961 4.61265 3.69546 4.49544 3.81267C4.37823 3.92988 4.31238 4.08885 4.31238 4.25461V4.25461ZM4.31238 6.50461C4.31238 6.67037 4.37823 6.82934 4.49544 6.94655C4.61265 7.06376 4.77162 7.12961 4.93738 7.12961C5.10314 7.12961 5.26211 7.06376 5.37932 6.94655C5.49653 6.82934 5.56238 6.67037 5.56238 6.50461C5.56238 6.33885 5.49653 6.17988 5.37932 6.06267C5.26211 5.94546 5.10314 5.87961 4.93738 5.87961C4.77162 5.87961 4.61265 5.94546 4.49544 6.06267C4.37823 6.17988 4.31238 6.33885 4.31238 6.50461ZM4.31238 8.75461C4.31238 8.92037 4.37823 9.07934 4.49544 9.19655C4.61265 9.31376 4.77162 9.37961 4.93738 9.37961C5.10314 9.37961 5.26211 9.31376 5.37932 9.19655C5.49653 9.07934 5.56238 8.92037 5.56238 8.75461C5.56238 8.58885 5.49653 8.42988 5.37932 8.31267C5.26211 8.19546 5.10314 8.12961 4.93738 8.12961C4.77162 8.12961 4.61265 8.19546 4.49544 8.31267C4.37823 8.42988 4.31238 8.58885 4.31238 8.75461V8.75461Z" fill="black" fill-opacity="0.85"/>
</svg>
