<svg width="12" height="13" viewBox="0 0 12 13" fill="none" xmlns="http://www.w3.org/2000/svg">
<path d="M11.4136 10.4321C11.1189 9.73391 10.6911 9.09974 10.1542 8.56489C9.61898 8.0285 8.98491 7.60083 8.28705 7.30551C8.2808 7.30239 8.27455 7.30082 8.2683 7.2977C9.24174 6.59457 9.87455 5.44926 9.87455 4.15707C9.87455 2.01645 8.14018 0.282074 5.99955 0.282074C3.85893 0.282074 2.12455 2.01645 2.12455 4.15707C2.12455 5.44926 2.75736 6.59457 3.7308 7.29926C3.72455 7.30239 3.7183 7.30395 3.71205 7.30707C3.01205 7.60239 2.38393 8.02583 1.84486 8.56645C1.30847 9.10171 0.880808 9.73578 0.585488 10.4336C0.295367 11.1168 0.138898 11.8493 0.124551 12.5915C0.124134 12.6081 0.127059 12.6247 0.133154 12.6402C0.139249 12.6558 0.14839 12.6699 0.160039 12.6819C0.171688 12.6938 0.185609 12.7033 0.200982 12.7098C0.216355 12.7162 0.232869 12.7196 0.249551 12.7196H1.18705C1.2558 12.7196 1.31049 12.6649 1.31205 12.5977C1.3433 11.3915 1.82768 10.2618 2.68393 9.40551C3.56986 8.51958 4.74643 8.03207 5.99955 8.03207C7.25268 8.03207 8.42924 8.51958 9.31518 9.40551C10.1714 10.2618 10.6558 11.3915 10.6871 12.5977C10.6886 12.6665 10.7433 12.7196 10.8121 12.7196H11.7496C11.7662 12.7196 11.7827 12.7162 11.7981 12.7098C11.8135 12.7033 11.8274 12.6938 11.8391 12.6819C11.8507 12.6699 11.8599 12.6558 11.8659 12.6402C11.872 12.6247 11.875 12.6081 11.8746 12.5915C11.8589 11.8446 11.7042 11.118 11.4136 10.4321V10.4321ZM5.99955 6.84457C5.28236 6.84457 4.60736 6.56489 4.09955 6.05707C3.59174 5.54926 3.31205 4.87426 3.31205 4.15707C3.31205 3.43989 3.59174 2.76489 4.09955 2.25707C4.60736 1.74926 5.28236 1.46957 5.99955 1.46957C6.71674 1.46957 7.39174 1.74926 7.89955 2.25707C8.40736 2.76489 8.68705 3.43989 8.68705 4.15707C8.68705 4.87426 8.40736 5.54926 7.89955 6.05707C7.39174 6.56489 6.71674 6.84457 5.99955 6.84457Z" fill="black"/>
</svg>
