<svg width="14" height="14" viewBox="0 0 14 14" fill="none" xmlns="http://www.w3.org/2000/svg">
<rect width="14" height="14" fill="white"/>
<path d="M13.1252 6.50128H12.2502C12.1815 6.50128 12.1252 6.55753 12.1252 6.62628V11.6263H1.87524V1.37628H6.87524C6.94399 1.37628 7.00024 1.32003 7.00024 1.25128V0.376282C7.00024 0.307532 6.94399 0.251282 6.87524 0.251282H1.25024C0.973682 0.251282 0.750244 0.474719 0.750244 0.751282V12.2513C0.750244 12.5278 0.973682 12.7513 1.25024 12.7513H12.7502C13.0268 12.7513 13.2502 12.5278 13.2502 12.2513V6.62628C13.2502 6.55753 13.194 6.50128 13.1252 6.50128Z" fill="black"/>
<path d="M4.56108 6.85909L4.53139 8.71691C4.52983 8.85597 4.64233 8.97003 4.78139 8.97003H4.78764L6.63139 8.92472C6.66264 8.92316 6.69389 8.91066 6.71577 8.88878L13.2142 2.40441C13.2626 2.35597 13.2626 2.27628 13.2142 2.22784L11.272 0.287219C11.247 0.262219 11.2158 0.251282 11.183 0.251282C11.1501 0.251282 11.1189 0.263782 11.0939 0.287219L4.59702 6.77159C4.57445 6.7952 4.56161 6.82644 4.56108 6.85909ZM5.55327 7.22784L11.183 1.61066L11.8892 2.31534L6.25639 7.93566L5.54233 7.95284L5.55327 7.22784Z" fill="black"/>
</svg>
