<svg width="12" height="15" viewBox="0 0 12 15" fill="none" xmlns="http://www.w3.org/2000/svg">
<path d="M10.9996 0.502724H0.999634C0.723071 0.502724 0.499634 0.726161 0.499634 1.00272V14.0027C0.499634 14.2793 0.723071 14.5027 0.999634 14.5027H10.9996C11.2762 14.5027 11.4996 14.2793 11.4996 14.0027V1.00272C11.4996 0.726161 11.2762 0.502724 10.9996 0.502724ZM1.62463 1.62772H10.3746V4.87772H1.62463V1.62772ZM10.3746 9.12772H1.62463V5.87772H10.3746V9.12772ZM10.3746 13.3777H1.62463V10.1277H10.3746V13.3777ZM5.74963 2.75272H2.87463C2.80588 2.75272 2.74963 2.80897 2.74963 2.87772V3.62772C2.74963 3.69647 2.80588 3.75272 2.87463 3.75272H5.74963C5.81838 3.75272 5.87463 3.69647 5.87463 3.62772V2.87772C5.87463 2.80897 5.81838 2.75272 5.74963 2.75272ZM2.87463 8.00272H5.74963C5.81838 8.00272 5.87463 7.94647 5.87463 7.87772V7.12772C5.87463 7.05897 5.81838 7.00272 5.74963 7.00272H2.87463C2.80588 7.00272 2.74963 7.05897 2.74963 7.12772V7.87772C2.74963 7.94647 2.80588 8.00272 2.87463 8.00272ZM7.99963 11.8152C7.99963 11.981 8.06548 12.14 8.18269 12.2572C8.2999 12.3744 8.45887 12.4402 8.62463 12.4402C8.7904 12.4402 8.94937 12.3744 9.06658 12.2572C9.18379 12.14 9.24963 11.981 9.24963 11.8152C9.24963 11.6495 9.18379 11.4905 9.06658 11.3733C8.94937 11.2561 8.7904 11.1902 8.62463 11.1902C8.45887 11.1902 8.2999 11.2561 8.18269 11.3733C8.06548 11.4905 7.99963 11.6495 7.99963 11.8152V11.8152Z" fill="black" fill-opacity="0.85"/>
</svg>
