<svg width="15" height="15" viewBox="0 0 15 15" fill="none" xmlns="http://www.w3.org/2000/svg">
<path d="M13.7899 7.39243L7.75241 1.35806L7.34772 0.953372C7.25551 0.861773 7.13082 0.810364 7.00085 0.810364C6.87087 0.810364 6.74618 0.861773 6.65397 0.953372L0.211783 7.39243C0.117301 7.48655 0.0426296 7.59864 -0.00782254 7.72208C-0.0582747 7.84553 -0.0834854 7.97783 -0.0819665 8.11118C-0.0757165 8.66119 0.382096 9.10025 0.932096 9.10025H1.59616V14.1893H12.4055V9.10025H13.0837C13.3508 9.10025 13.6024 8.99556 13.7915 8.8065C13.8846 8.7137 13.9583 8.60336 14.0085 8.48186C14.0586 8.36037 14.0842 8.23013 14.0837 8.09869C14.0837 7.83306 13.979 7.5815 13.7899 7.39243V7.39243ZM7.87585 13.0643H6.12585V9.87681H7.87585V13.0643ZM11.2805 7.97525V13.0643H8.87585V9.50181C8.87585 9.1565 8.59616 8.87681 8.25085 8.87681H5.75085C5.40553 8.87681 5.12585 9.1565 5.12585 9.50181V13.0643H2.72116V7.97525H1.22116L7.00241 2.19868L7.36335 2.55962L12.7821 7.97525H11.2805Z" fill="black" fill-opacity="0.85"/>
</svg>
