<svg width="14" height="14" viewBox="0 0 14 14" fill="none" xmlns="http://www.w3.org/2000/svg">
<rect width="14" height="14" fill="white"/>
<path d="M9.5566 4.32846H8.91539C8.77594 4.32846 8.64332 4.39545 8.56129 4.5103L6.41207 7.49077L5.43863 6.13998C5.3566 6.02651 5.22535 5.95815 5.08453 5.95815H4.44332C4.35445 5.95815 4.3025 6.05932 4.35445 6.13178L6.05797 8.49428C6.09821 8.55045 6.15126 8.59622 6.21272 8.62779C6.27419 8.65936 6.34229 8.67583 6.41139 8.67583C6.48048 8.67583 6.54859 8.65936 6.61005 8.62779C6.67151 8.59622 6.72456 8.55045 6.7648 8.49428L9.6441 4.50209C9.69742 4.42963 9.64547 4.32846 9.5566 4.32846Z" fill="black" fill-opacity="0.85"/>
<path d="M7 0.377716C3.61758 0.377716 0.875 3.12029 0.875 6.50272C0.875 9.88514 3.61758 12.6277 7 12.6277C10.3824 12.6277 13.125 9.88514 13.125 6.50272C13.125 3.12029 10.3824 0.377716 7 0.377716ZM7 11.5887C4.1918 11.5887 1.91406 9.31092 1.91406 6.50272C1.91406 3.69451 4.1918 1.41678 7 1.41678C9.8082 1.41678 12.0859 3.69451 12.0859 6.50272C12.0859 9.31092 9.8082 11.5887 7 11.5887Z" fill="black" fill-opacity="0.85"/>
</svg>
