<svg width="14" height="13" viewBox="0 0 14 13" fill="none" xmlns="http://www.w3.org/2000/svg">
<path d="M9.56275 7.33275C8.769 7.33275 8.12525 7.9765 8.12525 8.77025C8.12525 9.564 8.769 10.2077 9.56275 10.2077C10.3565 10.2077 11.0002 9.564 11.0002 8.77025C11.0002 7.9765 10.3565 7.33275 9.56275 7.33275ZM9.56275 9.3015C9.269 9.3015 9.0315 9.064 9.0315 8.77025C9.0315 8.4765 9.269 8.239 9.56275 8.239C9.8565 8.239 10.094 8.4765 10.094 8.77025C10.094 9.064 9.8565 9.3015 9.56275 9.3015ZM12.7502 1.12962H9.43775C9.43775 0.646807 9.04556 0.25462 8.56275 0.25462H7.31274C6.82993 0.25462 6.43774 0.646807 6.43774 1.12962H3.12524C2.84868 1.12962 2.62524 1.35306 2.62524 1.62962V4.75462H1.25024C0.973682 4.75462 0.750244 4.97806 0.750244 5.25462V12.2546C0.750244 12.5312 0.973682 12.7546 1.25024 12.7546H6.50024C6.77681 12.7546 7.00024 12.5312 7.00024 12.2546V12.0046H12.7502C13.0268 12.0046 13.2502 11.7812 13.2502 11.5046V1.62962C13.2502 1.35306 13.0268 1.12962 12.7502 1.12962ZM6.31274 2.12962H7.43774V1.25462H8.43775V2.12962H9.56275V2.87962H6.31274V2.12962ZM6.00024 11.7546H1.75024V8.12962H6.00024V11.7546ZM6.00024 7.12962H1.75024V5.75462H6.00024V7.12962ZM12.1252 10.8796H7.00024V5.25462C7.00024 4.97806 6.77681 4.75462 6.50024 4.75462H3.75024V2.25462H5.31274V3.87962H10.5627V2.25462H12.1252V10.8796ZM10.0002 4.87962V6.37962C10.0002 6.44837 10.0565 6.50462 10.1252 6.50462H10.8752C10.944 6.50462 11.0002 6.44837 11.0002 6.37962V4.87962C11.0002 4.81087 10.944 4.75462 10.8752 4.75462H10.1252C10.0565 4.75462 10.0002 4.81087 10.0002 4.87962ZM8.25025 6.50462H9.00025C9.069 6.50462 9.12525 6.44837 9.12525 6.37962V5.50462C9.12525 5.43587 9.069 5.37962 9.00025 5.37962H8.25025C8.1815 5.37962 8.12525 5.43587 8.12525 5.50462V6.37962C8.12525 6.44837 8.1815 6.50462 8.25025 6.50462Z" fill="black" fill-opacity="0.85"/>
</svg>
