<svg width="14" height="15" viewBox="0 0 14 15" fill="none" xmlns="http://www.w3.org/2000/svg">
<path d="M13.1891 5.02105L9.2219 4.44449L7.44847 0.849176C7.40003 0.750738 7.32034 0.671051 7.2219 0.622613C6.97503 0.500738 6.67503 0.602301 6.55159 0.849176L4.77815 4.44449L0.810967 5.02105C0.701592 5.03668 0.601592 5.08824 0.525029 5.16636C0.432469 5.2615 0.381465 5.38949 0.383223 5.52221C0.384981 5.65493 0.439357 5.78153 0.534404 5.87418L3.40472 8.67261L2.72659 12.6242C2.71069 12.7161 2.72086 12.8106 2.75595 12.8971C2.79105 12.9835 2.84966 13.0584 2.92514 13.1132C3.00062 13.168 3.08995 13.2006 3.183 13.2072C3.27605 13.2139 3.3691 13.1943 3.45159 13.1507L7.00003 11.2851L10.5485 13.1507C10.6453 13.2023 10.7578 13.2195 10.8657 13.2007C11.1375 13.1539 11.3203 12.8961 11.2735 12.6242L10.5953 8.67261L13.4657 5.87418C13.5438 5.79761 13.5953 5.69761 13.611 5.58824C13.6532 5.3148 13.4625 5.06168 13.1891 5.02105V5.02105ZM9.38753 8.27886L9.95159 11.5648L7.00003 10.0148L4.04847 11.5664L4.61253 8.28043L2.22503 5.9523L5.52503 5.47261L7.00003 2.48355L8.47503 5.47261L11.775 5.9523L9.38753 8.27886Z" fill="black" fill-opacity="0.85"/>
</svg>
