<svg width="12" height="15" viewBox="0 0 12 15" fill="none" xmlns="http://www.w3.org/2000/svg">
<path d="M11.3528 4.0121L7.99026 0.649599C7.89651 0.555849 7.76995 0.502724 7.63713 0.502724H0.999634C0.723071 0.502724 0.499634 0.726161 0.499634 1.00272V14.0027C0.499634 14.2793 0.723071 14.5027 0.999634 14.5027H10.9996C11.2762 14.5027 11.4996 14.2793 11.4996 14.0027V4.36679C11.4996 4.23397 11.4465 4.10585 11.3528 4.0121ZM10.3465 4.59647H7.40588V1.65585L10.3465 4.59647ZM10.3746 13.3777H1.62463V1.62772H6.34338V5.00272C6.34338 5.17677 6.41252 5.34369 6.5356 5.46676C6.65867 5.58983 6.82559 5.65897 6.99963 5.65897H10.3746V13.3777ZM5.87463 9.15897H2.99963C2.93088 9.15897 2.87463 9.21522 2.87463 9.28397V10.034C2.87463 10.1027 2.93088 10.159 2.99963 10.159H5.87463C5.94338 10.159 5.99963 10.1027 5.99963 10.034V9.28397C5.99963 9.21522 5.94338 9.15897 5.87463 9.15897ZM2.87463 7.15897V7.90897C2.87463 7.97772 2.93088 8.03397 2.99963 8.03397H8.99963C9.06838 8.03397 9.12463 7.97772 9.12463 7.90897V7.15897C9.12463 7.09022 9.06838 7.03397 8.99963 7.03397H2.99963C2.93088 7.03397 2.87463 7.09022 2.87463 7.15897Z" fill="black" fill-opacity="0.85"/>
</svg>
