<svg width="14" height="15" viewBox="0 0 14 15" fill="none" xmlns="http://www.w3.org/2000/svg">
<path d="M11.9996 0.502716H1.99963C1.72307 0.502716 1.49963 0.726154 1.49963 1.00272V14.0027C1.49963 14.2793 1.72307 14.5027 1.99963 14.5027H11.9996C12.2762 14.5027 12.4996 14.2793 12.4996 14.0027V1.00272C12.4996 0.726154 12.2762 0.502716 11.9996 0.502716ZM11.3746 13.3777H2.62463V10.2371H4.15432C4.33557 10.7496 4.65432 11.2105 5.07776 11.5605C5.61682 12.0058 6.29963 12.2527 6.99963 12.2527C7.69963 12.2527 8.38245 12.0074 8.92151 11.5605C9.34495 11.2105 9.6637 10.7496 9.84495 10.2371H11.3746V9.25272H9.05588L8.97464 9.63865C8.78714 10.573 7.95588 11.2527 6.99963 11.2527C6.04338 11.2527 5.21213 10.573 5.02307 9.63865L4.94182 9.25272H2.62463V1.62772H11.3746V13.3777ZM3.99963 4.83084H9.99963C10.0684 4.83084 10.1246 4.77459 10.1246 4.70584V3.95584C10.1246 3.88709 10.0684 3.83084 9.99963 3.83084H3.99963C3.93088 3.83084 3.87463 3.88709 3.87463 3.95584V4.70584C3.87463 4.77459 3.93088 4.83084 3.99963 4.83084ZM3.99963 7.33084H9.99963C10.0684 7.33084 10.1246 7.27459 10.1246 7.20584V6.45584C10.1246 6.38709 10.0684 6.33084 9.99963 6.33084H3.99963C3.93088 6.33084 3.87463 6.38709 3.87463 6.45584V7.20584C3.87463 7.27459 3.93088 7.33084 3.99963 7.33084Z" fill="black" fill-opacity="0.85"/>
</svg>
    